<svg id="Layer_1" data-name="Layer 1" xmlns="http://www.w3.org/2000/svg" viewBox="0 0 52 52"><defs><style>.cls-1{fill:#fff;}</style></defs><title>icon-explore</title><path class="cls-1" d="M26,0A26,26,0,1,0,52,26,26,26,0,0,0,26,0ZM51,21.09c-1.71-3.94-5.49-7.31-10.46-9.6-2.23-5-5.66-8.74-9.6-10.46A25.67,25.67,0,0,1,51,21.09ZM26.29,17.71c2.63,0,5.2.17,7.6.4.23,2.4.4,5,.4,7.6h-8Zm0-.57v-8a34.64,34.64,0,0,1,6.06.51,54,54,0,0,1,1.49,7.89C31.43,17.31,28.91,17.14,26.29,17.14Zm0-8.57v-8C28.63.8,30.74,4.06,32.17,9A39.6,39.6,0,0,0,26.29,8.57Zm-.57,0a33.16,33.16,0,0,0-5.89.51c1.43-5,3.54-8.23,5.89-8.51Zm0,.57v8c-2.63,0-5.14.17-7.54.4a55.47,55.47,0,0,1,1.49-7.89A34.64,34.64,0,0,1,25.71,9.14Zm0,8.57v8h-8c0-2.63.17-5.2.4-7.6C20.51,17.89,23.09,17.71,25.71,17.71Zm-8.57,8h-8a34.64,34.64,0,0,1,.51-6.06,54,54,0,0,1,7.89-1.49C17.31,20.57,17.14,23.09,17.14,25.71Zm-8.57,0h-8C.8,23.37,4.06,21.26,9,19.83A39.6,39.6,0,0,0,8.57,25.71Zm0,.57a33.16,33.16,0,0,0,.51,5.89c-5-1.43-8.23-3.54-8.51-5.89Zm.57,0h8c0,2.63.17,5.14.4,7.54a55.47,55.47,0,0,1-7.89-1.49A34.64,34.64,0,0,1,9.14,26.29Zm8.57,0h8v8c-2.63,0-5.2-.17-7.6-.4C17.89,31.49,17.71,28.91,17.71,26.29Zm8,8.57v8a34.64,34.64,0,0,1-6.06-.51,54,54,0,0,1-1.49-7.89C20.57,34.69,23.09,34.86,25.71,34.86Zm0,8.57v8c-2.34-.23-4.46-3.49-5.89-8.46A39.6,39.6,0,0,0,25.71,43.43Zm.57,0a33.16,33.16,0,0,0,5.89-.51c-1.49,5-3.54,8.23-5.89,8.46Zm0-.57v-8c2.63,0,5.14-.17,7.54-.4a55.47,55.47,0,0,1-1.49,7.89A34.64,34.64,0,0,1,26.29,42.86Zm0-8.57v-8h8c0,2.63-.17,5.2-.4,7.6C31.49,34.11,28.91,34.29,26.29,34.29Zm8.57-8h8a34.64,34.64,0,0,1-.51,6.06,54,54,0,0,1-7.89,1.49C34.69,31.43,34.86,28.91,34.86,26.29Zm8.57,0h8c-.23,2.34-3.49,4.46-8.46,5.89A39.6,39.6,0,0,0,43.43,26.29Zm0-.57a33.16,33.16,0,0,0-.51-5.89c5,1.49,8.23,3.54,8.46,5.89Zm-.57,0h-8c0-2.63-.17-5.14-.4-7.54a55.47,55.47,0,0,1,7.89,1.49A34.64,34.64,0,0,1,42.86,25.71ZM34.4,17.6A56.5,56.5,0,0,0,33,9.77a31,31,0,0,1,7.09,2.17A33.11,33.11,0,0,1,42.23,19,56.5,56.5,0,0,0,34.4,17.6ZM32.8,9.2c-1.14-4.06-2.74-7-4.57-8.4,4.69,1,8.8,4.86,11.49,10.4A29.4,29.4,0,0,0,32.8,9.2Zm-13.6,0a36.09,36.09,0,0,0-6.91,2C14.91,5.66,19,1.77,23.77.8,21.94,2.17,20.34,5.14,19.2,9.2ZM19,9.77A53.51,53.51,0,0,0,17.6,17.6,56.5,56.5,0,0,0,9.77,19a31,31,0,0,1,2.17-7.09A38,38,0,0,1,19,9.77ZM9.2,19.2c-4.06,1.14-7,2.74-8.4,4.57,1-4.69,4.86-8.8,10.4-11.49A29.4,29.4,0,0,0,9.2,19.2Zm0,13.6a36.08,36.08,0,0,0,2,6.91C5.66,37,1.77,32.91.8,28.23,2.17,30.06,5.14,31.66,9.2,32.8Zm.57.17A53.51,53.51,0,0,0,17.6,34.4,56.5,56.5,0,0,0,19,42.23a31,31,0,0,1-7.09-2.17A38,38,0,0,1,9.77,33ZM19.2,42.8c1.14,4.06,2.74,7,4.57,8.4-4.69-1-8.8-4.86-11.49-10.4A29.4,29.4,0,0,0,19.2,42.8Zm13.6,0a36.09,36.09,0,0,0,6.91-2C37.09,46.34,33,50.23,28.23,51.2,30.06,49.83,31.66,46.86,32.8,42.8Zm.17-.57A53.51,53.51,0,0,0,34.4,34.4,56.5,56.5,0,0,0,42.23,33a31,31,0,0,1-2.17,7.09A38,38,0,0,1,33,42.23ZM42.8,32.8c4.06-1.14,7-2.74,8.4-4.57-1,4.69-4.86,8.8-10.4,11.49A29.4,29.4,0,0,0,42.8,32.8Zm0-13.6a36.09,36.09,0,0,0-2-6.91c5.54,2.63,9.43,6.74,10.4,11.49C49.83,21.94,46.86,20.34,42.8,19.2ZM21.09,1c-3.94,1.71-7.31,5.49-9.6,10.46-5,2.23-8.74,5.66-10.46,9.6A25.67,25.67,0,0,1,21.09,1ZM1,30.91c1.71,3.94,5.49,7.31,10.46,9.6,2.23,5,5.66,8.74,9.6,10.46A25.67,25.67,0,0,1,1,30.91ZM30.91,51c3.94-1.71,7.31-5.49,9.6-10.46,5-2.23,8.74-5.66,10.46-9.6A25.67,25.67,0,0,1,30.91,51Z"/></svg>