<svg id="Layer_1" data-name="Layer 1" xmlns="http://www.w3.org/2000/svg" viewBox="0 0 65.68 56.26"><defs><style>.cls-1{fill:#fff;}</style></defs><title>icon-artists</title><path class="cls-1" d="M3.32,45.16a22.18,22.18,0,0,0,1.8,2.73c6.46,8.41,12.26,10.46,17.73,6.26a18.74,18.74,0,0,0,6-8.43c.79-1.85,1.46-3.44,2.79-4.46a14.77,14.77,0,0,1,3.33-2,9.37,9.37,0,0,0,3-2c3.42-3.17.1-8.67-.66-9.83L57.7,11.23l3.07-1.62,4.92-7.93L63.12.31,62,1.2a.88.88,0,0,0-.11-.85A.89.89,0,0,0,60.59.18L60.05.6a.89.89,0,0,0-.16,1.25.88.88,0,0,0,.79.33l-.85.65A.88.88,0,0,0,59.71,2a.89.89,0,0,0-1.25-.16l-.54.41a.89.89,0,0,0-.16,1.25.88.88,0,0,0,.79.33l-.77.59a.88.88,0,0,0-.11-.85.89.89,0,0,0-1.25-.16l-.54.41a.89.89,0,0,0-.16,1.25.88.88,0,0,0,.79.33l-.36.28-.88,2.6L34.4,23.74,34,23.26c-1.2-1.5-5.14-6.05-8.19-5.22A8,8,0,0,0,22,20.66a39.12,39.12,0,0,1-4.33,3.84c-.95.73-2.55,1-4.4,1.23-3.1.45-6.95,1-10.62,4.06S-.8,38.93,3.32,45.16ZM60.62,1.33a0,0,0,0,1,0,0v0l.58-.36-.54.41ZM58.49,3a0,0,0,0,1,0,0v0L59,2.55,58.49,3Zm-2,1.57a0,0,0,0,1,0,0v0L57,4.12l-.54.41ZM28,29.91l.25.15.22.16.21.19.15.16a3,3,0,0,1,.29.38l.12.2c0,.08.09.16.12.25s.07.18.1.27.05.16.07.25a3,3,0,1,1-1.54-2Zm2.37,1.78,0-.18a3.87,3.87,0,0,0-.22-.59l-.06-.11a3.73,3.73,0,0,0-1.56-1.63h0L55.54,9.12l1.31,1.7-26.44,21ZM56.87,6.18,63.2,1.33,64.47,2,60.15,9l-2.59,1.37L56.1,8.44ZM27.53,28.83a3.88,3.88,0,1,0,2.93,4L36.58,28c.76,1.18,3.58,6.05.75,8.66a8.56,8.56,0,0,1-2.74,1.8,15.48,15.48,0,0,0-3.49,2.11c-1.5,1.15-2.22,2.84-3.05,4.8-1.09,2.56-2.33,5.47-5.73,8.08-3.2,2.46-8.39,4.5-16.53-6.1-.25-.32-.47-.65-.69-1l.09-.07c-.38-.49-.72-1-1.05-1.47-3-5.39-2.33-10.4.44-12.53,3.55-2.73,7.21-3.32,10.15-3.8,2-.32,3.71-.6,4.86-1.48a32.72,32.72,0,0,0,4.62-4.28,7,7,0,0,1,3.17-2.4c2.29-.77,5,2.27,6.12,3.6l.21.27h0ZM13.36,26.58c2-.29,3.67-.54,4.8-1.4a40.44,40.44,0,0,0,4.41-3.92c1.27-1.28,2-2,3.5-2.4a3.51,3.51,0,0,1,2.55.56,3.3,3.3,0,0,0-1.51.12,7.84,7.84,0,0,0-3.53,2.64,31.49,31.49,0,0,1-4.51,4.18c-1,.75-2.59,1-4.47,1.31-3,.49-6.81,1.1-10.54,4-1.9,1.46-3,4.09-2.74,7.32-1-3.56-.4-6.64,1.84-8.51C6.65,27.56,10.37,27,13.36,26.58Z"/><path class="cls-1" d="M15.9,33.78,14.37,35a.43.43,0,0,0-.08.6L16,37.73l-.25.19a.43.43,0,0,0-.08.6l3,3.86a.43.43,0,0,0,.6.08l.25-.19,1.67,2.18a.43.43,0,0,0,.6.08l1.53-1.17a.42.42,0,0,0,.14-.22c.87.51,3.09,1.34,5.91-1.33,3.18-3,2.87-8.4,2.86-8.62a.43.43,0,0,0-.79-.2,12.79,12.79,0,0,1-3.23,3.55,3.66,3.66,0,0,1-2.25.52,4.34,4.34,0,0,0-3.21,1,2.47,2.47,0,0,0-1,1.89,2.8,2.8,0,0,0,.07.71L16.5,33.86A.43.43,0,0,0,15.9,33.78Zm7.32,5a3.48,3.48,0,0,1,2.66-.85,4.48,4.48,0,0,0,2.71-.65,10.89,10.89,0,0,0,2.69-2.65c-.11,1.73-.61,4.7-2.57,6.56-3.05,2.9-5.12,1.07-5.14,1a3.59,3.59,0,0,1-1-2.21A1.63,1.63,0,0,1,23.22,38.77Zm-7.14-4,6.31,8.21-.85.65-1.67-2.18-3-3.86-1.67-2.18Z"/></svg>