<svg id="Layer_1" data-name="Layer 1" xmlns="http://www.w3.org/2000/svg" viewBox="0 0 29 29"><defs><style>.cls-1{fill:#fff;}</style></defs><title>icon-white-sign-in</title><path class="cls-1" d="M25.79.45a2.75,2.75,0,0,1,2.76,2.76V25.79a2.75,2.75,0,0,1-2.76,2.76H3.22A2.75,2.75,0,0,1,.45,25.79V3.22A2.75,2.75,0,0,1,3.22.45H25.79m0-.45H3.22A3.23,3.23,0,0,0,0,3.22V25.79A3.23,3.23,0,0,0,3.22,29H25.79A3.23,3.23,0,0,0,29,25.79V3.22A3.23,3.23,0,0,0,25.79,0Z"/><path class="cls-1" d="M14.5,5.3a4.37,4.37,0,1,1-4.4,4.35A4.4,4.4,0,0,1,14.5,5.3M14.5,18c3.17,0,9.2,1.77,9.2,4.53v1.18H5.3V22.57c0-2.76,6-4.53,9.2-4.53m0-13.19a4.83,4.83,0,1,0,4.85,4.8,4.85,4.85,0,0,0-4.85-4.8Zm0,12.73c-3.22,0-9.65,1.77-9.65,5V24.2H24.2V22.57c0-3.22-6.48-5-9.7-5Z"/></svg>