<svg id="Layer_1" data-name="Layer 1" xmlns="http://www.w3.org/2000/svg" viewBox="0 0 20 16.21"><defs><style>.cls-1{fill:#1dca7f;}</style></defs><title>icon-green-volume</title><path class="cls-1" d="M9.32,15.26a.81.81,0,0,1-.53-.2L4.37,11.22H.81A.81.81,0,0,1,0,10.41V5.8A.81.81,0,0,1,.81,5H4.37L8.79,1.15A.82.82,0,0,1,9.66,1h0a.82.82,0,0,1,.48.74V14.45A.81.81,0,0,1,9.32,15.26ZM.81,5.38a.42.42,0,0,0-.42.42h0v4.6a.42.42,0,0,0,.42.42H4.44a.2.2,0,0,1,.13,0L9,14.78a.42.42,0,0,0,.7-.33V1.77A.42.42,0,0,0,9,1.43L4.57,5.32a.2.2,0,0,1-.13,0Z"/><path class="cls-1" d="M12,5.82h-.09a.23.23,0,0,0,0,.42A2,2,0,0,1,13.09,8v.13a1.94,1.94,0,0,1-1.18,1.76.23.23,0,0,0-.12.3.24.24,0,0,0,.3.12,2.41,2.41,0,0,0,1.46-2.21V8a2.4,2.4,0,0,0-1.48-2.19Z"/><path class="cls-1" d="M13.37,2.91h-.08a.23.23,0,0,0-.13.12.23.23,0,0,0,.11.31,5.23,5.23,0,0,1,0,9.5.23.23,0,0,0-.11.31.24.24,0,0,0,.3.11,5.7,5.7,0,0,0,3.32-5.16v0a5.71,5.71,0,0,0-3.32-5.16Z"/><path class="cls-1" d="M14.72,0a.23.23,0,0,0-.22.31.23.23,0,0,0,.12.13,8.43,8.43,0,0,1,0,15.32.23.23,0,0,0,.15.44l0,0a9,9,0,0,0,5.18-8V8a9,9,0,0,0-5.18-8Z"/></svg>