<svg id="Layer_1" data-name="Layer 1" xmlns="http://www.w3.org/2000/svg" viewBox="0 0 54 54"><defs><style>.cls-1{fill:#fff;}</style></defs><title>icon-playlists</title><path class="cls-1" d="M27,0A27,27,0,1,0,54,27,27,27,0,0,0,27,0Zm0,53.21A26.21,26.21,0,1,1,53.21,27,26.24,26.24,0,0,1,27,53.21Z"/><path class="cls-1" d="M43.21,33.25V19L33,22.05V34a2.41,2.41,0,1,0,.8,1.79,2.51,2.51,0,0,0,0-.29V22.64l8.64-2.58V31.55a2.41,2.41,0,1,0,.79,1.78s0-.05,0-.08h0ZM33,36a1.63,1.63,0,1,1,0-.37Zm7.8-1a1.63,1.63,0,1,1,1.63-1.63A1.63,1.63,0,0,1,40.8,35Z"/><rect class="cls-1" x="11.4" y="16.43" width="26.47" height="0.79"/><rect class="cls-1" x="11.4" y="24.85" width="19.12" height="0.79"/><rect class="cls-1" x="11.4" y="33.27" width="12.68" height="0.79"/></svg>