<svg id="Layer_1" data-name="Layer 1" xmlns="http://www.w3.org/2000/svg" viewBox="0 0 32 32"><defs><style>.cls-1{fill:#1dca7f;}</style></defs><title>icon-settings</title><path class="cls-1" d="M28.44.4A3.17,3.17,0,0,1,31.6,3.56V28.44a3.17,3.17,0,0,1-3.16,3.16H3.56A3.17,3.17,0,0,1,.4,28.44V3.56A3.17,3.17,0,0,1,3.56.4H28.44m0-.4H3.56A3.57,3.57,0,0,0,0,3.56V28.44A3.57,3.57,0,0,0,3.56,32H28.44A3.57,3.57,0,0,0,32,28.44V3.56A3.57,3.57,0,0,0,28.44,0Z"/><path class="cls-1" d="M18.4,4a.6.6,0,0,1,.32.16l.48,3.28,0,.24.2.08a10,10,0,0,1,2,1.16l.2.16.2-.08,3.08-1.24H25a.22.22,0,0,1,.2.12l2.48,4.28a.25.25,0,0,1,0,.28l-2.64,2-.2.12,0,.24c0,.44.08.8.08,1.16s0,.76-.08,1.16l0,.2.2.16,2.6,2a.2.2,0,0,1,0,.28l-2.48,4.28a.22.22,0,0,1-.2.12h-.08L21.8,23l-.2-.08-.2.16a9,9,0,0,1-2,1.16l-.2.08,0,.24-.44,3.28a.22.22,0,0,1-.24.2h-5a.27.27,0,0,1-.24-.16L12.8,24.6v-.28l-.2-.08a10,10,0,0,1-2-1.16l-.2-.16-.2.08L7.12,24.24H7a.22.22,0,0,1-.2-.12L4.36,19.84a.25.25,0,0,1,0-.28l2.64-2,.16-.16v-.2c0-.44-.08-.84-.08-1.16s0-.72.08-1.16l0-.24L7,14.44l-2.6-2a.2.2,0,0,1,0-.28L6.88,7.84a.22.22,0,0,1,.2-.12h.08L10.24,9l.2.08.2-.16a9,9,0,0,1,2-1.16l.2-.08,0-.24.44-3.28a.22.22,0,0,1,.24-.2H18.4m0-.32H13.52a.68.68,0,0,0-.64.52L12.4,7.4a8.42,8.42,0,0,0-2.08,1.24L7.24,7.4a.51.51,0,0,0-.24,0,.58.58,0,0,0-.52.32L4,12a.62.62,0,0,0,.16.8l2.64,2c0,.4-.08.8-.08,1.2s0,.8.08,1.24l-2.64,2a.62.62,0,0,0-.16.8l2.48,4.28a.62.62,0,0,0,.52.32.51.51,0,0,0,.24,0l3.08-1.24a9.87,9.87,0,0,0,2.08,1.24l.48,3.28a.65.65,0,0,0,.64.52h5a.61.61,0,0,0,.6-.52l.48-3.28a8.42,8.42,0,0,0,2.08-1.24l3.08,1.24a.51.51,0,0,0,.24,0,.62.62,0,0,0,.52-.32L28,20.08a.62.62,0,0,0-.16-.8L25.2,17.2c0-.4.08-.8.08-1.2s0-.8-.08-1.24l2.64-2a.62.62,0,0,0,.16-.8L25.52,7.64A.62.62,0,0,0,25,7.32a.51.51,0,0,0-.24,0L21.68,8.6A9.87,9.87,0,0,0,19.6,7.36l-.48-3.28a.81.81,0,0,0-.72-.48Z"/><path class="cls-1" d="M16,12.8A3.2,3.2,0,0,1,19.2,16a3.31,3.31,0,0,1-.92,2.28,3.19,3.19,0,0,1-2.24,1h0a3.2,3.2,0,1,1,0-6.4h0m0-.4h0a3.6,3.6,0,1,0,0,7.2h0a3.6,3.6,0,0,0,0-7.2Z"/></svg>