<svg id="Layer_1" data-name="Layer 1" xmlns="http://www.w3.org/2000/svg" viewBox="0 0 33.9 32"><defs><style>.cls-1{fill:#1dca7f;}</style></defs><title>icon-now-playing</title><path class="cls-1" d="M3.39,24.84H30.51a3.4,3.4,0,0,0,3.39-3.39V3.39A3.4,3.4,0,0,0,30.51,0H3.39A3.4,3.4,0,0,0,0,3.39V21.45A3.4,3.4,0,0,0,3.39,24.84ZM.53,3.39A2.86,2.86,0,0,1,3.39.53H30.51a2.86,2.86,0,0,1,2.86,2.86V21.45a2.86,2.86,0,0,1-2.86,2.86H3.39A2.86,2.86,0,0,1,.53,21.45Z"/><path class="cls-1" d="M12.09,5.18V19.65l12.53-7.23Zm.53.92,10.94,6.32L12.62,18.73Z"/><path class="cls-1" d="M8.19,26.84a2.57,2.57,0,0,0-2.55,2.31H1.06v.53H5.64a2.57,2.57,0,0,0,5.11,0H32.84v-.53H10.75A2.57,2.57,0,0,0,8.19,26.84Zm0,4.63a2,2,0,1,1,2-2A2.05,2.05,0,0,1,8.19,31.47Z"/></svg>