<svg xmlns="http://www.w3.org/2000/svg" viewBox="0 0 32 32"><defs><style>.cls-1{fill:#ed4062;}</style></defs><title>icon-smiley</title><g id="Layer_2" data-name="Layer 2"><g id="No_Results" data-name="No Results"><path class="cls-1" d="M16,32A16,16,0,1,0,0,16,16,16,0,0,0,16,32ZM16,1.14A14.86,14.86,0,1,1,1.14,16,14.87,14.87,0,0,1,16,1.14Z"/><path class="cls-1" d="M8.63,18a.57.57,0,0,0,.76.27A16.76,16.76,0,0,1,16,17.14a16.76,16.76,0,0,1,6.61,1.09.57.57,0,0,0,.5-1A17.45,17.45,0,0,0,16,16a17.46,17.46,0,0,0-7.11,1.2A.57.57,0,0,0,8.63,18Z"/><path class="cls-1" d="M9.14,14.29a2.86,2.86,0,1,0-2.86-2.86A2.86,2.86,0,0,0,9.14,14.29Zm0-4.57a1.71,1.71,0,1,1-1.71,1.71A1.72,1.72,0,0,1,9.14,9.71Z"/><path class="cls-1" d="M22.86,14.29A2.86,2.86,0,1,0,20,11.43,2.86,2.86,0,0,0,22.86,14.29Zm0-4.57a1.71,1.71,0,1,1-1.71,1.71A1.72,1.72,0,0,1,22.86,9.71Z"/></g></g></svg>