<svg id="Layer_1" data-name="Layer 1" xmlns="http://www.w3.org/2000/svg" viewBox="0 0 29 29"><defs><style>.cls-1{fill:none;stroke:#fff;stroke-linecap:round;stroke-miterlimit:10;stroke-width:0.5px;}.cls-2{fill:#fff;}</style></defs><title>icon-white-auth-error</title><line class="cls-1" x1="7" y1="22" x2="22" y2="7"/><line class="cls-1" x1="7" y1="7" x2="22" y2="22"/><path class="cls-2" d="M25.79.45a2.75,2.75,0,0,1,2.76,2.76V25.79a2.75,2.75,0,0,1-2.76,2.76H3.22A2.75,2.75,0,0,1,.45,25.79V3.22A2.75,2.75,0,0,1,3.22.45H25.79m0-.45H3.22A3.23,3.23,0,0,0,0,3.22V25.79A3.23,3.23,0,0,0,3.22,29H25.79A3.23,3.23,0,0,0,29,25.79V3.22A3.23,3.23,0,0,0,25.79,0Z"/></svg>