<svg id="Layer_1" data-name="Layer 1" xmlns="http://www.w3.org/2000/svg" viewBox="0 0 30 23.56"><defs><style>.cls-1{fill:#1dca7f;}</style></defs><title>icon-green-repeat</title><path class="cls-1" d="M14.55,0A11.77,11.77,0,0,0,5.13,4.94C5.1,5,5,5.06,5,5.12a.31.31,0,1,0,.53.34c0-.06.09-.12.12-.19a11.17,11.17,0,0,1,20.26,6,9.18,9.18,0,0,1-.12,2.24l-2.57-3.42a.33.33,0,0,0-.43-.06.33.33,0,0,0-.06.43l3.09,4.11a.28.28,0,0,0,.25.12l.09,0,0,0,.06,0,0,0h0l3.62-3.5a.3.3,0,0,0,0-.43.3.3,0,0,0-.43,0l-3.14,3a11.71,11.71,0,0,0-5.43-12A11.71,11.71,0,0,0,14.55,0Zm-11,8.86a.31.31,0,0,0-.12.06h0l0,0,0,0L.05,13.54A.33.33,0,0,0,.12,14,.44.44,0,0,0,.3,14a.28.28,0,0,0,.25-.12L3,10.46A11.72,11.72,0,0,0,8.56,21.83a11.6,11.6,0,0,0,6.16,1.73,11.85,11.85,0,0,0,9.06-4.18.31.31,0,1,0-.46-.4A11.21,11.21,0,0,1,8.9,21.3,11,11,0,0,1,3.75,9.91l3,4A.28.28,0,0,0,7,14c.06,0,.12,0,.15-.06a.33.33,0,0,0,.06-.43L3.83,9l0,0,0,0h0A.28.28,0,0,0,3.53,8.87Z"/></svg>