<svg id="Layer_1" data-name="Layer 1" xmlns="http://www.w3.org/2000/svg" viewBox="0 0 20 27.94"><defs><style>.cls-1{fill:#1dca7f;}</style></defs><title>icon-green-follow</title><path class="cls-1" d="M10,10.89a5.44,5.44,0,1,1,5.44-5.44A5.45,5.45,0,0,1,10,10.89Zm0-9.47a4,4,0,1,0,4,4A4,4,0,0,0,10,1.42Z"/><path class="cls-1" d="M9,24.53H2a2.2,2.2,0,0,1-1.59-.6,1.33,1.33,0,0,1-.4-1l.06-3.2c0-4.12,4.28-7.23,10-7.23s10,3.11,10,7.24v.82a.71.71,0,0,1-.7.72h0a.71.71,0,0,1-.71-.7v-.83c0-3.33-3.67-5.83-8.54-5.83s-8.54,2.5-8.54,5.82l-.06,3.17a.84.84,0,0,0,.57.18H9a.71.71,0,0,1,0,1.42Z"/><path class="cls-1" d="M20,23.82a.71.71,0,0,1-.71.71h-2.7v2.7a.71.71,0,1,1-1.42,0v-2.7h-2.7a.71.71,0,0,1,0-1.42h2.7v-2.7a.71.71,0,0,1,1.42,0v2.7h2.7A.71.71,0,0,1,20,23.82Z"/></svg>