<svg id="Layer_1" data-name="Layer 1" xmlns="http://www.w3.org/2000/svg" viewBox="0 0 52.4 52.4"><defs><style>.cls-1{fill:#fff;}</style></defs><title>icon-songs</title><path class="cls-1" d="M26.2,0A26.2,26.2,0,1,0,52.4,26.2,26.23,26.23,0,0,0,26.2,0Zm0,51.29A25.09,25.09,0,1,1,51.29,26.2,25.12,25.12,0,0,1,26.2,51.29ZM26.4,2.87H26.2a23.35,23.35,0,0,0-.2,46.7h.21a23.35,23.35,0,0,0,.2-46.7Zm-.2,45.59H26A22.24,22.24,0,0,1,26.19,4h.2a22.24,22.24,0,0,1-.19,44.48Zm.41-42.72h-.42A20.61,20.61,0,0,0,5.7,25.82,20.5,20.5,0,0,0,25.79,46.73h.42a20.5,20.5,0,0,0,.4-41Zm-.4,39.89h-.4a19.39,19.39,0,0,1-19-19.78,19.49,19.49,0,0,1,19.38-19h.4a19.39,19.39,0,0,1-.38,38.78Zm0-37.21A17.92,17.92,0,1,0,44.12,26.34,17.94,17.94,0,0,0,26.2,8.41Zm0,26.38a8.46,8.46,0,1,1,8.46-8.46A8.47,8.47,0,0,1,26.2,34.8Zm2.36-8.46A2.36,2.36,0,1,1,26.2,24,2.37,2.37,0,0,1,28.56,26.34Z"/></svg>