<svg id="Layer_1" data-name="Layer 1" xmlns="http://www.w3.org/2000/svg" viewBox="0 0 25 20.56"><defs><style>.cls-1{fill:#fff;}</style></defs><title>icon-white-shuffle</title><path class="cls-1" d="M21.67,0a.37.37,0,0,0-.25.62l2.4,2.7c-.11,0-1.1,0-2.36,0a28,28,0,0,0-3.87.32c-2.27.46-3.7,2.05-5,4.21a.37.37,0,1,0,.62.38c1.27-2.1,2.52-3.46,4.53-3.87a28.46,28.46,0,0,1,3.75-.31c1.24,0,2.2,0,2.33,0L21.42,6.73a.37.37,0,0,0,.55.49h0l2.94-3.3a.37.37,0,0,0,0-.49L22,.13A.37.37,0,0,0,21.67,0ZM.33,3.32A.37.37,0,1,0,.4,4s1,0,2.19,0a20.47,20.47,0,0,1,3.22.31c2.49.62,4,3.34,5.62,6.16a26.12,26.12,0,0,0,2.56,4,6.38,6.38,0,0,0,3.59,2.35,27.82,27.82,0,0,0,3.87.33c1.25,0,2.22,0,2.35,0l-2.39,2.68a.37.37,0,0,0,.55.49h0l2.94-3.3a.37.37,0,0,0,0-.49L22,13.34a.37.37,0,1,0-.55.49l2.4,2.7c-.11,0-1.09,0-2.34,0a28.23,28.23,0,0,1-3.75-.32,5.61,5.61,0,0,1-3.17-2.1,25.84,25.84,0,0,1-2.48-3.87C10.5,7.38,8.9,4.42,6,3.69a19.78,19.78,0,0,0-3.38-.33c-1.2,0-2.21,0-2.21,0Zm10,8.43a.37.37,0,0,0-.29.18C8.74,14,7.72,15.7,5.82,16.17a20.47,20.47,0,0,1-3.22.31c-1.19,0-2.19,0-2.19,0a.37.37,0,1,0,0,.73h0s1,0,2.21,0A19.78,19.78,0,0,0,6,16.89c2.24-.56,3.36-2.5,4.62-4.58a.37.37,0,0,0-.33-.56Z"/></svg>