<svg id="Layer_1" data-name="Layer 1" xmlns="http://www.w3.org/2000/svg" viewBox="0 0 50 50"><defs><style>.cls-1{fill:#fff;}</style></defs><title>icon-home-sign-in</title><path class="cls-1" d="M44.45.78a4.73,4.73,0,0,1,4.77,4.77V44.45a4.73,4.73,0,0,1-4.77,4.77H5.55A4.73,4.73,0,0,1,.78,44.45V5.55A4.73,4.73,0,0,1,5.55.78H44.45m0-.78H5.55A5.57,5.57,0,0,0,0,5.55V44.45A5.57,5.57,0,0,0,5.55,50H44.45A5.57,5.57,0,0,0,50,44.45V5.55A5.57,5.57,0,0,0,44.45,0Z"/><path class="cls-1" d="M25,9.14a7.54,7.54,0,1,1-7.58,7.5A7.59,7.59,0,0,1,25,9.14m0,22c5.47,0,15.86,3,15.86,7.81v2H9.14v-2c0-4.77,10.39-7.81,15.86-7.81M25,8.36a8.32,8.32,0,1,0,8.36,8.28A8.37,8.37,0,0,0,25,8.36Zm0,22c-5.55,0-16.64,3-16.64,8.59v2.81H41.72V38.91c-.08-5.55-11.17-8.59-16.72-8.59Z"/></svg>