<svg id="Layer_1" data-name="Layer 1" xmlns="http://www.w3.org/2000/svg" viewBox="0 0 113.23 33.96"><defs><style>.cls-1{fill:#1dca7f;}</style></defs><title>spotify-logo</title><g id="Logo"><path class="cls-1" d="M17,0A17,17,0,1,0,34,17,17,17,0,0,0,17,0Zm7.79,24.49a1.06,1.06,0,0,1-1.46.35c-4-2.44-9-3-14.92-1.64a1.06,1.06,0,1,1-.47-2.06c6.47-1.48,12-.84,16.49,1.89A1.06,1.06,0,0,1,24.77,24.49Zm2.08-4.62A1.32,1.32,0,0,1,25,20.3a22.29,22.29,0,0,0-16.92-2,1.32,1.32,0,1,1-.77-2.53A24.77,24.77,0,0,1,26.41,18,1.32,1.32,0,0,1,26.84,19.87ZM27,15.05c-5.47-3.25-14.5-3.55-19.73-2a1.59,1.59,0,1,1-.92-3c6-1.82,16-1.47,22.27,2.27A1.59,1.59,0,0,1,27,15.05Z"/><path class="cls-1" d="M46.2,15.68c-2.93-.7-3.45-1.19-3.45-2.22s.92-1.63,2.28-1.63a6.66,6.66,0,0,1,4,1.52.19.19,0,0,0,.14,0,.19.19,0,0,0,.13-.08l1.43-2a.19.19,0,0,0,0-.26,8.66,8.66,0,0,0-5.63-2c-3.17,0-5.38,1.9-5.38,4.62,0,2.91,1.91,3.95,5.2,4.74,2.81.65,3.28,1.19,3.28,2.16s-1,1.74-2.5,1.74A6.73,6.73,0,0,1,41,20.4a.2.2,0,0,0-.14,0,.19.19,0,0,0-.13.07l-1.61,1.91a.19.19,0,0,0,0,.27,9.57,9.57,0,0,0,6.46,2.48c3.41,0,5.62-1.86,5.62-4.75C51.23,17.89,49.77,16.54,46.2,15.68Z"/><path class="cls-1" d="M58.94,12.78a4.6,4.6,0,0,0-3.69,1.78V13.22a.19.19,0,0,0-.19-.19H52.43a.19.19,0,0,0-.19.19V28.14a.19.19,0,0,0,.19.19h2.63a.19.19,0,0,0,.19-.19V23.43a4.72,4.72,0,0,0,3.69,1.67c2.75,0,5.53-2.11,5.53-6.16S61.69,12.78,58.94,12.78Zm2.48,6.16c0,2.06-1.27,3.5-3.08,3.5a3.26,3.26,0,0,1-3.15-3.5,3.26,3.26,0,0,1,3.15-3.5A3.2,3.2,0,0,1,61.42,18.94Z"/><path class="cls-1" d="M71.6,12.78a6.17,6.17,0,1,0,6.29,6.16A6.19,6.19,0,0,0,71.6,12.78Zm0,9.68a3.34,3.34,0,0,1-3.3-3.52,3.26,3.26,0,0,1,3.26-3.47A3.35,3.35,0,0,1,74.88,19,3.27,3.27,0,0,1,71.6,22.46Z"/><path class="cls-1" d="M85.44,13H82.55v-3a.19.19,0,0,0-.19-.19H79.74a.19.19,0,0,0-.19.19v3H78.28a.19.19,0,0,0-.19.19v2.26a.19.19,0,0,0,.19.19h1.26V21.5c0,2.36,1.17,3.56,3.49,3.56a4.79,4.79,0,0,0,2.46-.61.19.19,0,0,0,.1-.17V22.13a.19.19,0,0,0-.28-.17,3.31,3.31,0,0,1-1.54.37c-.84,0-1.22-.38-1.22-1.24V15.66h2.89a.19.19,0,0,0,.19-.19V13.22A.19.19,0,0,0,85.44,13Z"/><path class="cls-1" d="M95.51,13v-.36c0-1.07.41-1.54,1.33-1.54a4.43,4.43,0,0,1,1.48.27.19.19,0,0,0,.25-.18V9a.19.19,0,0,0-.14-.18,7.2,7.2,0,0,0-2.18-.31c-2.42,0-3.71,1.37-3.71,3.95V13H91.28a.19.19,0,0,0-.19.19v2.27a.19.19,0,0,0,.19.19h1.26v9a.19.19,0,0,0,.19.19h2.63a.19.19,0,0,0,.19-.19v-9H98l3.75,9c-.43.95-.85,1.13-1.42,1.13a3,3,0,0,1-1.45-.41.2.2,0,0,0-.15,0,.19.19,0,0,0-.11.1l-.89,2a.19.19,0,0,0,.08.25,5.53,5.53,0,0,0,2.8.72c1.94,0,3-.9,4-3.33l4.55-11.77A.19.19,0,0,0,109,13h-2.73a.19.19,0,0,0-.18.13l-2.8,8-3.07-8A.19.19,0,0,0,100,13Z"/><rect class="cls-1" x="86.85" y="13.02" width="3.01" height="11.84" rx="0.19" ry="0.19"/><circle class="cls-1" cx="88.37" cy="9.69" r="1.88"/><path class="cls-1" d="M111.37,16.71a1.85,1.85,0,1,1,1.86-1.86A1.84,1.84,0,0,1,111.37,16.71Zm0-3.52A1.67,1.67,0,1,0,113,14.85,1.65,1.65,0,0,0,111.38,13.19Zm.41,1.85.52.73h-.44l-.47-.67H111v.67h-.37V13.83h.86c.45,0,.75.23.75.62A.58.58,0,0,1,111.79,15Zm-.31-.87H111v.61h.48c.24,0,.38-.12.38-.31S111.72,14.16,111.48,14.16Z"/></g></svg>